<svg width="76" height="86" viewBox="0 0 76 86" fill="none" xmlns="http://www.w3.org/2000/svg">
<g id="icon_creative">
<rect id="&#231;&#159;&#169;&#229;&#189;&#162;" x="13.7812" y="1.06836" width="60.8069" height="59.4302" rx="3.5" stroke="#333333"/>
<path id="&#232;&#183;&#175;&#229;&#190;&#132; 4" d="M14.2235 69.521C14.2235 64.0977 12.5947 60.7991 9.31889 57.8998C-5.73662 44.5744 1.39494 18.3877 23.582 18.3877C45.7691 18.3877 53.3078 44.5744 38.6375 57.125C32.2984 62.5482 33.0908 67.1967 33.0908 69.521C29.1288 69.521 19.62 69.521 14.2235 69.521Z" fill="#E7EBF5" stroke="#333333"/>
<path id="&#232;&#183;&#175;&#229;&#190;&#132; 3" d="M23.6761 25.3785C26.7527 25.3785 30.3968 26.1348 33.5662 29.2338C36.7357 32.3328 37.7324 35.5621 37.5937 38.5925C37.455 41.623 34.7751 41.7979 33.5664 38.6148C32.9852 37.0844 31.5593 34.1027 29.6393 32.3327C27.566 30.4213 24.9383 29.7586 22.7909 29.2337C19.6214 28.4589 20.5996 25.3785 23.6761 25.3785Z" fill="#E7EBF5" stroke="#333333"/>
<path id="&#232;&#183;&#175;&#229;&#190;&#132; 4_2" d="M14.2235 69.521C14.2235 64.0977 12.5947 60.7991 9.31889 57.8998C-5.73662 44.5744 1.39494 18.3877 23.582 18.3877C45.7691 18.3877 53.3078 44.5744 38.6375 57.125C32.2984 62.5482 33.0908 67.1967 33.0908 69.521C29.1288 69.521 19.62 69.521 14.2235 69.521Z" stroke="#333333"/>
<rect id="&#231;&#159;&#169;&#229;&#189;&#162;_2" x="13.7812" y="72.3452" width="19.6023" height="5.19797" rx="1.5" stroke="#333333"/>
<rect id="&#231;&#159;&#169;&#229;&#189;&#162; copy" x="16.9512" y="79.3179" width="13.2624" height="5.19797" rx="1.5" stroke="#333333"/>
</g>
</svg>