<svg width="92" height="73" viewBox="0 0 92 73" fill="none" xmlns="http://www.w3.org/2000/svg">
<g id="icon_insights">
<ellipse id="&#230;&#164;&#173;&#229;&#156;&#134;&#229;&#189;&#162;" cx="36.1762" cy="36.2037" rx="35.3119" ry="35.3101" stroke="#333333" stroke-width="1.2"/>
<path id="&#229;&#144;&#136;&#229;&#185;&#182;&#229;&#189;&#162;&#231;&#138;&#182;" d="M36.1761 12.6636C23.1746 12.6636 12.6348 23.2028 12.6348 36.2036H13.6348C13.6348 23.7552 23.7268 13.6636 36.1761 13.6636V12.6636ZM59.7174 36.2036C59.7174 23.2028 49.1776 12.6636 36.1761 12.6636V13.6636C48.6253 13.6636 58.7174 23.7552 58.7174 36.2036H59.7174ZM36.1761 59.7437C49.1776 59.7437 59.7174 49.2045 59.7174 36.2036H58.7174C58.7174 48.6521 48.6253 58.7437 36.1761 58.7437V59.7437ZM12.6348 36.2036C12.6348 49.2045 23.1746 59.7437 36.1761 59.7437V58.7437C23.7268 58.7437 13.6348 48.6521 13.6348 36.2036H12.6348ZM12.6348 36.2036C12.6348 23.2028 23.1746 12.6636 36.1761 12.6636V11.6636C22.6223 11.6636 11.6348 22.6505 11.6348 36.2036H12.6348ZM36.1761 59.7437C23.1746 59.7437 12.6348 49.2045 12.6348 36.2036H11.6348C11.6348 49.7568 22.6223 60.7437 36.1761 60.7437V59.7437ZM59.7174 36.2036C59.7174 49.2045 49.1776 59.7437 36.1761 59.7437V60.7437C49.7298 60.7437 60.7174 49.7568 60.7174 36.2036H59.7174ZM36.1761 12.6636C49.1776 12.6636 59.7174 23.2028 59.7174 36.2036H60.7174C60.7174 22.6505 49.7298 11.6636 36.1761 11.6636V12.6636Z" fill="#333333"/>
<g id="&#229;&#144;&#136;&#229;&#185;&#182;&#229;&#189;&#162;&#231;&#138;&#182;_2">
<path fill-rule="evenodd" clip-rule="evenodd" d="M52.6536 16.1946C52.6536 19.4448 50.0188 22.0796 46.7686 22.0796C43.5184 22.0796 40.8836 19.4448 40.8836 16.1946C40.8836 12.9444 43.5184 10.3096 46.7686 10.3096C50.0188 10.3096 52.6536 12.9444 52.6536 16.1946ZM22.5796 28.255C22.5796 31.8557 19.6606 34.7747 16.0598 34.7747C12.459 34.7747 9.54004 31.8557 9.54004 28.255C9.54004 24.6542 12.459 21.7352 16.0598 21.7352C19.6606 21.7352 22.5796 24.6542 22.5796 28.255ZM25.5823 61.4346C28.8325 61.4346 31.4673 58.7998 31.4673 55.5496C31.4673 52.2994 28.8325 49.6646 25.5823 49.6646C22.3321 49.6646 19.6973 52.2994 19.6973 55.5496C19.6973 58.7998 22.3321 61.4346 25.5823 61.4346Z" fill="#E7EBF5"/>
<path d="M46.7686 22.5796C50.295 22.5796 53.1536 19.7209 53.1536 16.1946H52.1536C52.1536 19.1686 49.7427 21.5796 46.7686 21.5796V22.5796ZM40.3836 16.1946C40.3836 19.7209 43.2423 22.5796 46.7686 22.5796V21.5796C43.7946 21.5796 41.3836 19.1686 41.3836 16.1946H40.3836ZM46.7686 9.80957C43.2423 9.80957 40.3836 12.6682 40.3836 16.1946H41.3836C41.3836 13.2205 43.7946 10.8096 46.7686 10.8096V9.80957ZM53.1536 16.1946C53.1536 12.6682 50.295 9.80957 46.7686 9.80957V10.8096C49.7427 10.8096 52.1536 13.2205 52.1536 16.1946H53.1536ZM16.0598 35.2747C19.9367 35.2747 23.0796 32.1319 23.0796 28.255H22.0796C22.0796 31.5796 19.3844 34.2747 16.0598 34.2747V35.2747ZM9.04004 28.255C9.04004 32.1319 12.1829 35.2747 16.0598 35.2747V34.2747C12.7352 34.2747 10.04 31.5796 10.04 28.255H9.04004ZM16.0598 21.2352C12.1829 21.2352 9.04004 24.3781 9.04004 28.255H10.04C10.04 24.9303 12.7352 22.2352 16.0598 22.2352V21.2352ZM23.0796 28.255C23.0796 24.3781 19.9367 21.2352 16.0598 21.2352V22.2352C19.3844 22.2352 22.0796 24.9303 22.0796 28.255H23.0796ZM30.9673 55.5496C30.9673 58.5236 28.5563 60.9346 25.5823 60.9346V61.9346C29.1086 61.9346 31.9673 59.0759 31.9673 55.5496H30.9673ZM25.5823 50.1646C28.5563 50.1646 30.9673 52.5755 30.9673 55.5496H31.9673C31.9673 52.0232 29.1086 49.1646 25.5823 49.1646V50.1646ZM20.1973 55.5496C20.1973 52.5755 22.6082 50.1646 25.5823 50.1646V49.1646C22.0559 49.1646 19.1973 52.0232 19.1973 55.5496H20.1973ZM25.5823 60.9346C22.6082 60.9346 20.1973 58.5236 20.1973 55.5496H19.1973C19.1973 59.0759 22.0559 61.9346 25.5823 61.9346V60.9346Z" fill="#333333"/>
</g>
<circle id="&#230;&#164;&#173;&#229;&#156;&#134;&#229;&#189;&#162; copy 6" cx="36.1746" cy="36.2039" r="8.23902" stroke="#333333"/>
<g id="&#229;&#136;&#134;&#231;&#187;&#132; 24">
<ellipse id="&#230;&#164;&#173;&#229;&#156;&#134;&#229;&#189;&#162;_2" cx="67.9131" cy="49.6916" rx="23.4404" ry="13.7878" fill="#E7EBF5" stroke="#333333"/>
<ellipse id="&#230;&#164;&#173;&#229;&#156;&#134;&#229;&#189;&#162;_3" cx="67.9131" cy="49.6916" rx="23.4404" ry="13.7878" stroke="#333333"/>
<circle id="&#230;&#164;&#173;&#229;&#156;&#134;&#229;&#189;&#162; copy 7" cx="67.9126" cy="49.6919" r="5.5151" stroke="#333333"/>
<path id="&#232;&#183;&#175;&#229;&#190;&#132; 13" d="M69.292 35.2144C69.292 33.4326 70.824 30.7731 72.7389 30.3887" stroke="#333333" stroke-linecap="round" stroke-linejoin="round"/>
<path id="&#232;&#183;&#175;&#229;&#190;&#132; 13 copy" d="M76.1865 36.5933C76.1865 34.8115 77.7185 32.152 79.6335 31.7676" stroke="#333333" stroke-linecap="round" stroke-linejoin="round"/>
<path id="&#232;&#183;&#175;&#229;&#190;&#132; 13 copy 2" d="M81.7012 37.9718C81.7012 36.6991 82.6204 34.7995 83.7693 34.5249" stroke="#333333" stroke-linecap="round" stroke-linejoin="round"/>
</g>
</g>
</svg>