<svg width="86" height="68" viewBox="0 0 86 68" fill="none" xmlns="http://www.w3.org/2000/svg">
<g id="icon_media">
<g id="Combined Shape">
<mask id="path-1-inside-1_134_12875" fill="white">
<path fill-rule="evenodd" clip-rule="evenodd" d="M40.4919 6.39355C38.5752 6.39355 37.0215 7.94731 37.0215 9.86397C37.0215 11.7806 38.5752 13.3344 40.4919 13.3344C42.4086 13.3344 43.9623 11.7806 43.9623 9.86397C43.9623 7.94731 42.4086 6.39355 40.4919 6.39355ZM40.4919 14.4912C38.5752 14.4912 37.0215 16.045 37.0215 17.9616C37.0215 19.8783 38.5752 21.432 40.4919 21.432C42.4086 21.432 43.9623 19.8783 43.9623 17.9616C43.9623 16.045 42.4086 14.4912 40.4919 14.4912ZM45.1191 9.86397C45.1191 7.94731 46.6729 6.39355 48.5896 6.39355C50.5062 6.39355 52.06 7.94731 52.06 9.86397C52.06 11.7806 50.5062 13.3344 48.5896 13.3344C46.6729 13.3344 45.1191 11.7806 45.1191 9.86397ZM48.5896 14.4912C46.6729 14.4912 45.1191 16.045 45.1191 17.9616C45.1191 19.8783 46.6729 21.432 48.5896 21.432C50.5062 21.432 52.06 19.8783 52.06 17.9616C52.06 16.045 50.5062 14.4912 48.5896 14.4912Z"/>
</mask>
<path d="M38.0215 9.86397C38.0215 8.4996 39.1275 7.39355 40.4919 7.39355V5.39355C38.023 5.39355 36.0215 7.39503 36.0215 9.86397H38.0215ZM40.4919 12.3344C39.1275 12.3344 38.0215 11.2283 38.0215 9.86397H36.0215C36.0215 12.3329 38.023 14.3344 40.4919 14.3344V12.3344ZM42.9623 9.86397C42.9623 11.2283 41.8563 12.3344 40.4919 12.3344V14.3344C42.9608 14.3344 44.9623 12.3329 44.9623 9.86397H42.9623ZM40.4919 7.39355C41.8563 7.39355 42.9623 8.4996 42.9623 9.86397H44.9623C44.9623 7.39503 42.9608 5.39355 40.4919 5.39355V7.39355ZM38.0215 17.9616C38.0215 16.5973 39.1275 15.4912 40.4919 15.4912V13.4912C38.023 13.4912 36.0215 15.4927 36.0215 17.9616H38.0215ZM40.4919 20.432C39.1275 20.432 38.0215 19.326 38.0215 17.9616H36.0215C36.0215 20.4306 38.023 22.432 40.4919 22.432V20.432ZM42.9623 17.9616C42.9623 19.326 41.8563 20.432 40.4919 20.432V22.432C42.9608 22.432 44.9623 20.4306 44.9623 17.9616H42.9623ZM40.4919 15.4912C41.8563 15.4912 42.9623 16.5973 42.9623 17.9616H44.9623C44.9623 15.4927 42.9608 13.4912 40.4919 13.4912V15.4912Z" fill="#333333" mask="url(#path-1-inside-1_134_12875)"/>
</g>
<g id="Combined Shape_2">
<mask id="path-3-inside-2_134_12875" fill="white">
<path fill-rule="evenodd" clip-rule="evenodd" d="M13.8845 9.86377C11.9678 9.86377 10.4141 11.4175 10.4141 13.3342C10.4141 15.2508 11.9678 16.8046 13.8845 16.8046C15.7912 16.8046 17.3388 15.2668 17.3548 13.3638C17.3707 15.2668 18.9183 16.8046 20.8251 16.8046C18.9182 16.8046 17.3705 18.3425 17.3548 20.2457C17.339 18.3426 15.7913 16.8047 13.8845 16.8047C11.9678 16.8047 10.4141 18.3584 10.4141 20.2751C10.4141 22.1918 11.9678 23.7455 13.8845 23.7455C15.7913 23.7455 17.339 22.2076 17.3548 20.3044C17.3706 22.2075 18.9182 23.7454 20.8251 23.7454C22.7417 23.7454 24.2955 22.1917 24.2955 20.275C24.2955 18.3584 22.7417 16.8046 20.8251 16.8046C22.7417 16.8046 24.2955 15.2508 24.2955 13.3342C24.2955 11.4175 22.7417 9.86377 20.8251 9.86377C18.9183 9.86377 17.3707 11.4015 17.3548 13.3045C17.3388 11.4015 15.7912 9.86377 13.8845 9.86377Z"/>
</mask>
<path d="M17.3548 13.3638L18.3547 13.3555L16.3548 13.3555L17.3548 13.3638ZM17.3548 20.2457L16.3548 20.254L18.3547 20.2539L17.3548 20.2457ZM17.3548 20.3044L18.3547 20.2961L16.3548 20.2962L17.3548 20.3044ZM17.3548 13.3045L16.3548 13.3129L18.3547 13.3129L17.3548 13.3045ZM11.4141 13.3342C11.4141 11.9698 12.5201 10.8638 13.8845 10.8638V8.86377C11.4155 8.86377 9.41406 10.8652 9.41406 13.3342H11.4141ZM13.8845 15.8046C12.5201 15.8046 11.4141 14.6986 11.4141 13.3342H9.41406C9.41406 15.8031 11.4155 17.8046 13.8845 17.8046V15.8046ZM16.3548 13.3555C16.3435 14.7099 15.2418 15.8046 13.8845 15.8046V17.8046C16.3407 17.8046 18.3342 15.8237 18.3547 13.3722L16.3548 13.3555ZM20.8251 15.8046C19.4678 15.8046 18.3661 14.7099 18.3547 13.3555L16.3548 13.3722C16.3753 15.8237 18.3688 17.8046 20.8251 17.8046V15.8046ZM18.3547 20.2539C18.366 18.8994 19.4677 17.8046 20.8251 17.8046V15.8046C18.3687 15.8046 16.3751 17.7857 16.3548 20.2374L18.3547 20.2539ZM13.8845 17.8047C15.2418 17.8047 16.3435 18.8994 16.3548 20.254L18.3547 20.2374C18.3344 17.7857 16.3408 15.8047 13.8845 15.8047V17.8047ZM11.4141 20.2751C11.4141 18.9107 12.5201 17.8047 13.8845 17.8047V15.8047C11.4155 15.8047 9.41406 17.8062 9.41406 20.2751H11.4141ZM13.8845 22.7455C12.5201 22.7455 11.4141 21.6395 11.4141 20.2751H9.41406C9.41406 22.744 11.4155 24.7455 13.8845 24.7455V22.7455ZM16.3548 20.2962C16.3436 21.6507 15.2418 22.7455 13.8845 22.7455V24.7455C16.3408 24.7455 18.3344 22.7645 18.3547 20.3127L16.3548 20.2962ZM20.8251 22.7454C19.4677 22.7454 18.366 21.6507 18.3547 20.2961L16.3548 20.3128C16.3752 22.7644 18.3687 24.7454 20.8251 24.7454V22.7454ZM23.2955 20.275C23.2955 21.6394 22.1894 22.7454 20.8251 22.7454V24.7454C23.294 24.7454 25.2955 22.7439 25.2955 20.275H23.2955ZM20.8251 17.8046C22.1894 17.8046 23.2955 18.9106 23.2955 20.275H25.2955C25.2955 17.8061 23.294 15.8046 20.8251 15.8046V17.8046ZM23.2955 13.3342C23.2955 14.6986 22.1894 15.8046 20.8251 15.8046V17.8046C23.294 17.8046 25.2955 15.8031 25.2955 13.3342H23.2955ZM20.8251 10.8638C22.1894 10.8638 23.2955 11.9698 23.2955 13.3342H25.2955C25.2955 10.8652 23.294 8.86377 20.8251 8.86377V10.8638ZM18.3547 13.3129C18.3661 11.9584 19.4678 10.8638 20.8251 10.8638V8.86377C18.3688 8.86377 16.3753 10.8446 16.3548 13.2962L18.3547 13.3129ZM13.8845 10.8638C15.2418 10.8638 16.3435 11.9584 16.3548 13.3129L18.3547 13.2962C18.3342 10.8446 16.3407 8.86377 13.8845 8.86377V10.8638Z" fill="#333333" mask="url(#path-3-inside-2_134_12875)"/>
</g>
<ellipse id="&#230;&#164;&#173;&#229;&#156;&#134;&#229;&#189;&#162;" cx="17.3542" cy="16.8048" rx="10.4118" ry="10.4112" stroke="#333333"/>
<ellipse id="&#230;&#164;&#173;&#229;&#156;&#134;&#229;&#189;&#162; copy 8" cx="43.9628" cy="13.3342" rx="12.7255" ry="12.7248" stroke="#333333"/>
<rect id="&#231;&#159;&#169;&#229;&#189;&#162;" x="0.501953" y="30.0293" width="58.0001" height="37.1745" rx="3.5" stroke="#333333"/>
<path id="&#229;&#164;&#154;&#232;&#190;&#185;&#229;&#189;&#162;" d="M71.8566 33.579C72.5148 33.0771 73.463 33.5464 73.463 34.3741L73.4627 60.6253C73.4627 61.4462 72.5282 61.9174 71.8681 61.4293L58.4474 51.5057L58.4475 43.8043L71.8566 33.579Z" stroke="#333333"/>
<path id="&#229;&#164;&#154;&#232;&#190;&#185;&#229;&#189;&#162;_2" d="M38.992 48.3291C39.6587 48.714 39.6587 49.6762 38.992 50.0611L28.1104 56.3437C27.4437 56.7286 26.6104 56.2474 26.6104 55.4776V42.9126C26.6104 42.1428 27.4437 41.6617 28.1104 42.0466L38.992 48.3291Z" stroke="#333333"/>
</g>
</svg>