<svg width="80" height="79" viewBox="0 0 80 79" fill="none" xmlns="http://www.w3.org/2000/svg">
<g id="icon_strategy">
<path id="&#232;&#183;&#175;&#229;&#190;&#132; 2" d="M34.0754 64.083L22.6482 76.5442C22.0601 77.1856 22.5151 78.2201 23.3853 78.2201H59.0195C59.8914 78.2201 60.3457 77.182 59.754 76.5415L48.2757 64.1166L34.0754 64.083Z" stroke="#333333"/>
<path id="&#232;&#183;&#175;&#229;&#190;&#132; 2_2" d="M34.0163 64.1476L22.6482 76.5444C22.0601 77.1858 22.5151 78.2203 23.3853 78.2203H59.0195C59.8914 78.2203 60.3457 77.1822 59.754 76.5417L48.2116 64.0474L34.0163 64.1476Z" stroke="#333333"/>
<rect id="&#231;&#159;&#169;&#229;&#189;&#162;" x="0.501953" y="0.528809" width="78.5267" height="63.6431" rx="5.5" stroke="#333333"/>
<path id="&#232;&#183;&#175;&#229;&#190;&#132; copy 2" d="M59.9872 48.1632L59.6281 47.7928L59.2691 48.1632L57.4808 50.0083L57.1435 50.3563L57.4808 50.7043L59.826 53.1239L57.4808 55.5436L57.1435 55.8915L57.4808 56.2395L59.2691 58.0846L59.6281 58.455L59.9872 58.0846L62.3106 55.6874L64.634 58.0846L64.9931 58.455L65.3521 58.0846L67.1404 56.2395L67.4777 55.8915L67.1404 55.5436L64.7952 53.1239L67.1404 50.7043L67.4777 50.3563L67.1404 50.0083L65.3521 48.1632L64.9931 47.7928L64.634 48.1632L62.3106 50.5604L59.9872 48.1632Z" stroke="#333333"/>
<path id="&#232;&#183;&#175;&#229;&#190;&#132; copy 3" d="M28.6581 9.62565L28.299 9.25521L27.94 9.62565L26.1517 11.4707L25.8144 11.8187L26.1517 12.1667L28.4969 14.5863L26.1517 17.006L25.8144 17.3539L26.1517 17.7019L27.94 19.547L28.299 19.9174L28.6581 19.547L30.9815 17.1498L33.3049 19.547L33.664 19.9174L34.023 19.547L35.8113 17.7019L36.1486 17.3539L35.8113 17.006L33.4661 14.5863L35.8113 12.1667L36.1486 11.8187L35.8113 11.4707L34.023 9.62565L33.664 9.25521L33.3049 9.62565L30.9815 12.0228L28.6581 9.62565Z" stroke="#333333"/>
<path id="&#232;&#183;&#175;&#229;&#190;&#132; copy 4" d="M10.5839 24.5436L10.2248 24.1732L9.8658 24.5436L8.07749 26.3887L7.74021 26.7367L8.07749 27.0847L10.4227 29.5043L8.07749 31.9239L7.74021 32.2719L8.07749 32.6199L9.8658 34.465L10.2248 34.8354L10.5839 34.465L12.9073 32.0678L15.2307 34.465L15.5897 34.8354L15.9488 34.465L17.7371 32.6199L18.0744 32.2719L17.7371 31.9239L15.3919 29.5043L17.7371 27.0847L18.0744 26.7367L17.7371 26.3887L15.9488 24.5436L15.5897 24.1732L15.2307 24.5436L12.9073 26.9408L10.5839 24.5436Z" stroke="#333333"/>
<ellipse id="&#230;&#164;&#173;&#229;&#156;&#134;&#229;&#189;&#162;" cx="65.0686" cy="16.1893" rx="4.81955" ry="4.97255" stroke="#333333"/>
<path id="&#232;&#183;&#175;&#229;&#190;&#132;" d="M43.7772 31.7377L16.0077 48.4346C14.7801 49.1727 14.4123 50.7835 15.198 51.9813C15.9413 53.1146 17.447 53.4584 18.6085 52.76L46.5035 35.9876L50.2651 43.0293C50.5571 43.576 51.3632 43.5015 51.55 42.9105L56.516 27.2021L56.0392 27.0514L56.516 27.2021C56.6483 26.7837 56.3674 26.3482 55.9318 26.2961L40.4719 24.4455C39.8848 24.3752 39.4804 25.0195 39.799 25.5177L40.2202 25.2483L39.799 25.5177L43.7772 31.7377Z" stroke="#333333"/>
</g>
</svg>